<?xml version="1.0" encoding="UTF-8" standalone="no"?>
<svg xmlns="http://www.w3.org/2000/svg"
     xmlns:xlink="http://www.w3.org/1999/xlink"
     width="576px" height="433px" viewBox="0 0 576 433">
<title>glps_renderer figure</title>
<desc>
Creator: GL2PS 1.3.8, (C) 1999-2012 C. Geuzaine
For: Octave
CreationDate: Sun Jun 18 00:10:31 2017
</desc>
<defs>
</defs>
<g shape-rendering="crispEdges">
<polygon fill="#ffffff" points="74.88,384.48 521.28,384.48 74.88,32.4"/>
<polygon fill="#ffffff" points="521.28,384.48 521.28,32.4 74.88,32.4"/>
<polygon fill="#ffffff" points="422.894,63.2535 518.538,63.2535 422.894,35.1417"/>
<polygon fill="#ffffff" points="518.538,63.2535 518.538,35.1417 422.894,35.1417"/>
<polyline fill="none" stroke="#000000" stroke-width="0.5" stroke-dasharray="16,0" points="74.88,384.48 521.28,384.48"/>
<polyline fill="none" stroke="#000000" stroke-width="0.5" stroke-dasharray="16,0" points="74.88,32.4 521.28,32.4"/>
<polyline fill="none" stroke="#000000" stroke-width="0.5" stroke-dasharray="16,0" points="74.88,384.48 74.88,32.4"/>
<polyline fill="none" stroke="#000000" stroke-width="0.5" stroke-dasharray="16,0" points="521.28,384.48 521.28,32.4"/>
<polyline fill="none" stroke="#000000" stroke-width="0.5" stroke-dasharray="0,3,1,3,1,3,1,3,1,0" points="74.88,384.48 74.88,32.4"/>
<polyline fill="none" stroke="#000000" stroke-width="0.5" stroke-dasharray="0,3,1,3,1,3,1,3,1,0" points="149.28,384.48 149.28,32.4"/>
<polyline fill="none" stroke="#000000" stroke-width="0.5" stroke-dasharray="0,3,1,3,1,3,1,3,1,0" points="223.68,384.48 223.68,32.4"/>
<polyline fill="none" stroke="#000000" stroke-width="0.5" stroke-dasharray="0,3,1,3,1,3,1,3,1,0" points="298.08,384.48 298.08,32.4"/>
<polyline fill="none" stroke="#000000" stroke-width="0.5" stroke-dasharray="0,3,1,3,1,3,1,3,1,0" points="372.48,384.48 372.48,32.4"/>
<polyline fill="none" stroke="#000000" stroke-width="0.5" stroke-dasharray="0,3,1,3,1,3,1,3,1,0" points="446.88,384.48 446.88,32.4"/>
<polyline fill="none" stroke="#000000" stroke-width="0.5" stroke-dasharray="0,3,1,3,1,3,1,3,1,0" points="521.28,384.48 521.28,32.4"/>
<polyline fill="none" stroke="#000000" stroke-width="0.5" stroke-dasharray="16,0" points="74.88,384.48 74.88,380.015"/>
<polyline fill="none" stroke="#000000" stroke-width="0.5" stroke-dasharray="16,0" points="74.88,32.4 74.88,36.8651"/>
<polyline fill="none" stroke="#000000" stroke-width="0.5" stroke-dasharray="16,0" points="149.28,384.48 149.28,380.015"/>
<polyline fill="none" stroke="#000000" stroke-width="0.5" stroke-dasharray="16,0" points="149.28,32.4 149.28,36.8651"/>
<polyline fill="none" stroke="#000000" stroke-width="0.5" stroke-dasharray="16,0" points="223.68,384.48 223.68,380.015"/>
<polyline fill="none" stroke="#000000" stroke-width="0.5" stroke-dasharray="16,0" points="223.68,32.4 223.68,36.8651"/>
<polyline fill="none" stroke="#000000" stroke-width="0.5" stroke-dasharray="16,0" points="298.08,384.48 298.08,380.015"/>
<polyline fill="none" stroke="#000000" stroke-width="0.5" stroke-dasharray="16,0" points="298.08,32.4 298.08,36.8651"/>
<polyline fill="none" stroke="#000000" stroke-width="0.5" stroke-dasharray="16,0" points="372.48,384.48 372.48,380.015"/>
<polyline fill="none" stroke="#000000" stroke-width="0.5" stroke-dasharray="16,0" points="372.48,32.4 372.48,36.8651"/>
<polyline fill="none" stroke="#000000" stroke-width="0.5" stroke-dasharray="16,0" points="446.88,384.48 446.88,380.015"/>
<polyline fill="none" stroke="#000000" stroke-width="0.5" stroke-dasharray="16,0" points="446.88,32.4 446.88,36.8651"/>
<polyline fill="none" stroke="#000000" stroke-width="0.5" stroke-dasharray="16,0" points="521.28,384.48 521.28,380.015"/>
<polyline fill="none" stroke="#000000" stroke-width="0.5" stroke-dasharray="16,0" points="521.28,32.4 521.28,36.8651"/>
<text fill="#000000" x="74.88" y="389.481" font-size="10" text-anchor="middle" baseline-shift="-10" font-family="Helvetica">0</text>
<text fill="#000000" x="149.28" y="389.481" font-size="10" text-anchor="middle" baseline-shift="-10" font-family="Helvetica">2</text>
<text fill="#000000" x="223.68" y="389.481" font-size="10" text-anchor="middle" baseline-shift="-10" font-family="Helvetica">4</text>
<text fill="#000000" x="298.08" y="389.481" font-size="10" text-anchor="middle" baseline-shift="-10" font-family="Helvetica">6</text>
<text fill="#000000" x="372.48" y="389.481" font-size="10" text-anchor="middle" baseline-shift="-10" font-family="Helvetica">8</text>
<text fill="#000000" x="446.88" y="389.481" font-size="10" text-anchor="middle" baseline-shift="-10" font-family="Helvetica">10</text>
<text fill="#000000" x="521.28" y="389.481" font-size="10" text-anchor="middle" baseline-shift="-10" font-family="Helvetica">12</text>
<polyline fill="none" stroke="#000000" stroke-width="0.5" stroke-dasharray="0,3,1,3,1,3,1,3,1,0" points="74.88,384.48 521.28,384.48"/>
<polyline fill="none" stroke="#000000" stroke-width="0.5" stroke-dasharray="0,3,1,3,1,3,1,3,1,0" points="74.88,314.064 521.28,314.064"/>
<polyline fill="none" stroke="#000000" stroke-width="0.5" stroke-dasharray="0,3,1,3,1,3,1,3,1,0" points="74.88,243.648 521.28,243.648"/>
<polyline fill="none" stroke="#000000" stroke-width="0.5" stroke-dasharray="0,3,1,3,1,3,1,3,1,0" points="74.88,173.232 521.28,173.232"/>
<polyline fill="none" stroke="#000000" stroke-width="0.5" stroke-dasharray="0,3,1,3,1,3,1,3,1,0" points="74.88,102.816 521.28,102.816"/>
<polyline fill="none" stroke="#000000" stroke-width="0.5" stroke-dasharray="0,3,1,3,1,3,1,3,1,0" points="74.88,32.4 521.28,32.4"/>
<polyline fill="none" stroke="#000000" stroke-width="0.5" stroke-dasharray="16,0" points="74.88,384.48 79.348,384.48"/>
<polyline fill="none" stroke="#000000" stroke-width="0.5" stroke-dasharray="16,0" points="521.28,384.48 516.812,384.48"/>
<polyline fill="none" stroke="#000000" stroke-width="0.5" stroke-dasharray="16,0" points="74.88,314.064 79.348,314.064"/>
<polyline fill="none" stroke="#000000" stroke-width="0.5" stroke-dasharray="16,0" points="521.28,314.064 516.812,314.064"/>
<polyline fill="none" stroke="#000000" stroke-width="0.5" stroke-dasharray="16,0" points="74.88,243.648 79.348,243.648"/>
<polyline fill="none" stroke="#000000" stroke-width="0.5" stroke-dasharray="16,0" points="521.28,243.648 516.812,243.648"/>
<polyline fill="none" stroke="#000000" stroke-width="0.5" stroke-dasharray="16,0" points="74.88,173.232 79.348,173.232"/>
<polyline fill="none" stroke="#000000" stroke-width="0.5" stroke-dasharray="16,0" points="521.28,173.232 516.812,173.232"/>
<polyline fill="none" stroke="#000000" stroke-width="0.5" stroke-dasharray="16,0" points="74.88,102.816 79.348,102.816"/>
<polyline fill="none" stroke="#000000" stroke-width="0.5" stroke-dasharray="16,0" points="521.28,102.816 516.812,102.816"/>
<polyline fill="none" stroke="#000000" stroke-width="0.5" stroke-dasharray="16,0" points="74.88,32.4 79.348,32.4"/>
<polyline fill="none" stroke="#000000" stroke-width="0.5" stroke-dasharray="16,0" points="521.28,32.4 516.812,32.4"/>
<text fill="#000000" x="69.8755" y="384.48" font-size="10" text-anchor="end" baseline-shift="-5" font-family="Helvetica">1e-6</text>
<text fill="#000000" x="69.8755" y="314.064" font-size="10" text-anchor="end" baseline-shift="-5" font-family="Helvetica">1e-5</text>
<text fill="#000000" x="69.8755" y="243.648" font-size="10" text-anchor="end" baseline-shift="-5" font-family="Helvetica">1e-4</text>
<text fill="#000000" x="69.8755" y="173.232" font-size="10" text-anchor="end" baseline-shift="-5" font-family="Helvetica">1e-3</text>
<text fill="#000000" x="69.8755" y="102.816" font-size="10" text-anchor="end" baseline-shift="-5" font-family="Helvetica">1e-2</text>
<text fill="#000000" x="69.8755" y="32.4" font-size="10" text-anchor="end" baseline-shift="-5" font-family="Helvetica">1e-1</text>
<polyline fill="none" stroke="#000000" stroke-width="0.5" stroke-dasharray="0,3,1,3,1,3,1,3,1,0" points="74.88,363.283 521.28,363.283"/>
<polyline fill="none" stroke="#000000" stroke-width="0.5" stroke-dasharray="0,3,1,3,1,3,1,3,1,0" points="74.88,350.883 521.28,350.883"/>
<polyline fill="none" stroke="#000000" stroke-width="0.5" stroke-dasharray="0,3,1,3,1,3,1,3,1,0" points="74.88,342.085 521.28,342.085"/>
<polyline fill="none" stroke="#000000" stroke-width="0.5" stroke-dasharray="0,3,1,3,1,3,1,3,1,0" points="74.88,335.261 521.28,335.261"/>
<polyline fill="none" stroke="#000000" stroke-width="0.5" stroke-dasharray="0,3,1,3,1,3,1,3,1,0" points="74.88,329.686 521.28,329.686"/>
<polyline fill="none" stroke="#000000" stroke-width="0.5" stroke-dasharray="0,3,1,3,1,3,1,3,1,0" points="74.88,324.972 521.28,324.972"/>
<polyline fill="none" stroke="#000000" stroke-width="0.5" stroke-dasharray="0,3,1,3,1,3,1,3,1,0" points="74.88,320.888 521.28,320.888"/>
<polyline fill="none" stroke="#000000" stroke-width="0.5" stroke-dasharray="0,3,1,3,1,3,1,3,1,0" points="74.88,317.286 521.28,317.286"/>
<polyline fill="none" stroke="#000000" stroke-width="0.5" stroke-dasharray="0,3,1,3,1,3,1,3,1,0" points="74.88,292.867 521.28,292.867"/>
<polyline fill="none" stroke="#000000" stroke-width="0.5" stroke-dasharray="0,3,1,3,1,3,1,3,1,0" points="74.88,280.467 521.28,280.467"/>
<polyline fill="none" stroke="#000000" stroke-width="0.5" stroke-dasharray="0,3,1,3,1,3,1,3,1,0" points="74.88,271.669 521.28,271.669"/>
<polyline fill="none" stroke="#000000" stroke-width="0.5" stroke-dasharray="0,3,1,3,1,3,1,3,1,0" points="74.88,264.845 521.28,264.845"/>
<polyline fill="none" stroke="#000000" stroke-width="0.5" stroke-dasharray="0,3,1,3,1,3,1,3,1,0" points="74.88,259.27 521.28,259.27"/>
<polyline fill="none" stroke="#000000" stroke-width="0.5" stroke-dasharray="0,3,1,3,1,3,1,3,1,0" points="74.88,254.556 521.28,254.556"/>
<polyline fill="none" stroke="#000000" stroke-width="0.5" stroke-dasharray="0,3,1,3,1,3,1,3,1,0" points="74.88,250.472 521.28,250.472"/>
<polyline fill="none" stroke="#000000" stroke-width="0.5" stroke-dasharray="0,3,1,3,1,3,1,3,1,0" points="74.88,246.87 521.28,246.87"/>
<polyline fill="none" stroke="#000000" stroke-width="0.5" stroke-dasharray="0,3,1,3,1,3,1,3,1,0" points="74.88,222.451 521.28,222.451"/>
<polyline fill="none" stroke="#000000" stroke-width="0.5" stroke-dasharray="0,3,1,3,1,3,1,3,1,0" points="74.88,210.051 521.28,210.051"/>
<polyline fill="none" stroke="#000000" stroke-width="0.5" stroke-dasharray="0,3,1,3,1,3,1,3,1,0" points="74.88,201.253 521.28,201.253"/>
<polyline fill="none" stroke="#000000" stroke-width="0.5" stroke-dasharray="0,3,1,3,1,3,1,3,1,0" points="74.88,194.429 521.28,194.429"/>
<polyline fill="none" stroke="#000000" stroke-width="0.5" stroke-dasharray="0,3,1,3,1,3,1,3,1,0" points="74.88,188.854 521.28,188.854"/>
<polyline fill="none" stroke="#000000" stroke-width="0.5" stroke-dasharray="0,3,1,3,1,3,1,3,1,0" points="74.88,184.14 521.28,184.14"/>
<polyline fill="none" stroke="#000000" stroke-width="0.5" stroke-dasharray="0,3,1,3,1,3,1,3,1,0" points="74.88,180.056 521.28,180.056"/>
<polyline fill="none" stroke="#000000" stroke-width="0.5" stroke-dasharray="0,3,1,3,1,3,1,3,1,0" points="74.88,176.454 521.28,176.454"/>
<polyline fill="none" stroke="#000000" stroke-width="0.5" stroke-dasharray="0,3,1,3,1,3,1,3,1,0" points="74.88,152.035 521.28,152.035"/>
<polyline fill="none" stroke="#000000" stroke-width="0.5" stroke-dasharray="0,3,1,3,1,3,1,3,1,0" points="74.88,139.635 521.28,139.635"/>
<polyline fill="none" stroke="#000000" stroke-width="0.5" stroke-dasharray="0,3,1,3,1,3,1,3,1,0" points="74.88,130.837 521.28,130.837"/>
<polyline fill="none" stroke="#000000" stroke-width="0.5" stroke-dasharray="0,3,1,3,1,3,1,3,1,0" points="74.88,124.013 521.28,124.013"/>
<polyline fill="none" stroke="#000000" stroke-width="0.5" stroke-dasharray="0,3,1,3,1,3,1,3,1,0" points="74.88,118.438 521.28,118.438"/>
<polyline fill="none" stroke="#000000" stroke-width="0.5" stroke-dasharray="0,3,1,3,1,3,1,3,1,0" points="74.88,113.724 521.28,113.724"/>
<polyline fill="none" stroke="#000000" stroke-width="0.5" stroke-dasharray="0,3,1,3,1,3,1,3,1,0" points="74.88,109.64 521.28,109.64"/>
<polyline fill="none" stroke="#000000" stroke-width="0.5" stroke-dasharray="0,3,1,3,1,3,1,3,1,0" points="74.88,106.038 521.28,106.038"/>
<polyline fill="none" stroke="#000000" stroke-width="0.5" stroke-dasharray="0,3,1,3,1,3,1,3,1,0" points="74.88,81.6187 521.28,81.6187"/>
<polyline fill="none" stroke="#000000" stroke-width="0.5" stroke-dasharray="0,3,1,3,1,3,1,3,1,0" points="74.88,69.2191 521.28,69.2191"/>
<polyline fill="none" stroke="#000000" stroke-width="0.5" stroke-dasharray="0,3,1,3,1,3,1,3,1,0" points="74.88,60.4214 521.28,60.4214"/>
<polyline fill="none" stroke="#000000" stroke-width="0.5" stroke-dasharray="0,3,1,3,1,3,1,3,1,0" points="74.88,53.5974 521.28,53.5974"/>
<polyline fill="none" stroke="#000000" stroke-width="0.5" stroke-dasharray="0,3,1,3,1,3,1,3,1,0" points="74.88,48.0217 521.28,48.0217"/>
<polyline fill="none" stroke="#000000" stroke-width="0.5" stroke-dasharray="0,3,1,3,1,3,1,3,1,0" points="74.88,43.3076 521.28,43.3076"/>
<polyline fill="none" stroke="#000000" stroke-width="0.5" stroke-dasharray="0,3,1,3,1,3,1,3,1,0" points="74.88,39.2241 521.28,39.2241"/>
<polyline fill="none" stroke="#000000" stroke-width="0.5" stroke-dasharray="0,3,1,3,1,3,1,3,1,0" points="74.88,35.6221 521.28,35.6221"/>
<text fill="#000000" x="298.08" y="400.481" font-size="10" text-anchor="middle" baseline-shift="-10" font-family="Helvetica">E_{B} / N_{0} (dB)</text>
<text fill="#000000" x="43.8755" y="208.44" font-size="10" transform="rotate(-90, 43.8755, 208.44)" text-anchor="middle" baseline-shift="0" font-family="Helvetica">Perror</text>
<polyline fill="none" stroke="#0000ff" stroke-width="0.5" points="74.88,33.7503 112.08,42.7338 149.28,53.5981 186.48,66.7925 223.68,82.8823 260.88,102.579 298.08,126.778 335.28,156.609 372.48,193.497 409.68,239.234 446.88,296.083 484.08,366.893"/>
<polyline fill="none" stroke="#000000" stroke-width="0.5" points="77.88,34.7247 77.3071,36.4881 75.8071,37.5779 73.9529,37.5779 72.4529,36.4881 71.88,34.7247 72.4529,32.9614 73.9529,31.8716 75.8071,31.8716 77.3071,32.9614 77.88,34.7247"/>
<polyline fill="none" stroke="#000000" stroke-width="0.5" points="115.08,42.8221 114.507,44.5855 113.007,45.6753 111.153,45.6753 109.653,44.5855 109.08,42.8221 109.653,41.0588 111.153,39.969 113.007,39.969 114.507,41.0588 115.08,42.8221"/>
<polyline fill="none" stroke="#000000" stroke-width="0.5" points="152.28,53.9789 151.707,55.7422 150.207,56.8321 148.353,56.8321 146.853,55.7422 146.28,53.9789 146.853,52.2155 148.353,51.1257 150.207,51.1257 151.707,52.2155 152.28,53.9789"/>
<polyline fill="none" stroke="#000000" stroke-width="0.5" points="189.48,66.1933 188.907,67.9567 187.407,69.0465 185.553,69.0465 184.053,67.9567 183.48,66.1933 184.053,64.43 185.553,63.3401 187.407,63.3401 188.907,64.43 189.48,66.1933"/>
<polyline fill="none" stroke="#000000" stroke-width="0.5" points="226.68,80.7147 226.107,82.4781 224.607,83.5679 222.753,83.5679 221.253,82.4781 220.68,80.7147 221.253,78.9514 222.753,77.8616 224.607,77.8616 226.107,78.9514 226.68,80.7147"/>
<polyline fill="none" stroke="#000000" stroke-width="0.5" points="263.88,101.912 263.307,103.675 261.807,104.765 259.953,104.765 258.453,103.675 257.88,101.912 258.453,100.149 259.953,99.0589 261.807,99.0589 263.307,100.149 263.88,101.912"/>
<polyline fill="none" stroke="#000000" stroke-width="0.5" points="301.08,125.135 300.507,126.898 299.007,127.988 297.153,127.988 295.653,126.898 295.08,125.135 295.653,123.371 297.153,122.281 299.007,122.281 300.507,123.371 301.08,125.135"/>
<polyline fill="none" stroke="#000000" stroke-width="0.5" points="338.28,158.479 337.707,160.242 336.207,161.332 334.353,161.332 332.853,160.242 332.28,158.479 332.853,156.715 334.353,155.626 336.207,155.626 337.707,156.715 338.28,158.479"/>
<polyline fill="none" stroke="#000000" stroke-width="0.5" points="375.48,190.692 374.907,192.455 373.407,193.545 371.553,193.545 370.053,192.455 369.48,190.692 370.053,188.928 371.553,187.839 373.407,187.839 374.907,188.928 375.48,190.692"/>
<polyline fill="none" stroke="#000000" stroke-width="0.5" points="412.68,236.52 412.107,238.283 410.607,239.373 408.753,239.373 407.253,238.283 406.68,236.52 407.253,234.756 408.753,233.667 410.607,233.667 412.107,234.756 412.68,236.52"/>
<polyline fill="none" stroke="#000000" stroke-width="0.5" points="449.88,291.298 449.307,293.061 447.807,294.151 445.953,294.151 444.453,293.061 443.88,291.298 444.453,289.535 445.953,288.445 447.807,288.445 449.307,289.535 449.88,291.298"/>
<polyline fill="none" stroke="#000000" stroke-width="0.5" points="487.08,369.935 486.507,371.698 485.007,372.788 483.153,372.788 481.653,371.698 481.08,369.935 481.653,368.172 483.153,367.082 485.007,367.082 486.507,368.172 487.08,369.935"/>
<polyline fill="none" stroke="#000000" stroke-width="0.5" stroke-dasharray="16,0" points="422.894,63.2535 518.538,63.2535"/>
<polyline fill="none" stroke="#000000" stroke-width="0.5" stroke-dasharray="16,0" points="422.894,35.1417 518.538,35.1417"/>
<polyline fill="none" stroke="#000000" stroke-width="0.5" stroke-dasharray="16,0" points="422.894,63.2535 422.894,35.1417"/>
<polyline fill="none" stroke="#000000" stroke-width="0.5" stroke-dasharray="16,0" points="518.538,63.2535 518.538,35.1417"/>
<text fill="#000000" x="448.94" y="42.1696" font-size="10" text-anchor="start" baseline-shift="-5" font-family="Helvetica">Teorico</text>
<text fill="#000000" x="448.94" y="56.2256" font-size="10" text-anchor="start" baseline-shift="-5" font-family="Helvetica">Experimental</text>
<polyline fill="none" stroke="#0000ff" stroke-width="0.5" points="425.635,42.1696 446.198,42.1696"/>
<polyline fill="none" stroke="#000000" stroke-width="0.5" points="438.917,56.2256 438.344,57.989 436.844,59.0787 434.99,59.0787 433.49,57.989 432.917,56.2256 433.49,54.4622 434.99,53.3724 436.844,53.3724 438.344,54.4622 438.917,56.2256"/>
<text fill="#000000" x="298.08" y="22.4" font-size="10" text-anchor="middle" baseline-shift="0" font-family="Helvetica">Perror BPSK con error de fase pi / 8</text>
</g>
</svg>
