<?xml version="1.0" encoding="UTF-8" standalone="no"?>
<svg xmlns="http://www.w3.org/2000/svg"
     xmlns:xlink="http://www.w3.org/1999/xlink"
     width="576px" height="433px" viewBox="0 0 576 433">
<title>glps_renderer figure</title>
<desc>
Creator: GL2PS 1.3.8, (C) 1999-2012 C. Geuzaine
For: Octave
CreationDate: Sun Jun 11 13:13:16 2017
</desc>
<defs>
</defs>
<g shape-rendering="crispEdges">
<polygon fill="#ffffff" points="74.88,384.48 521.28,384.48 74.88,32.4"/>
<polygon fill="#ffffff" points="521.28,384.48 521.28,32.4 74.88,32.4"/>
<polygon fill="#ffffff" points="422.846,63.266 518.534,63.266 422.846,35.1458"/>
<polygon fill="#ffffff" points="518.534,63.266 518.534,35.1458 422.846,35.1458"/>
<polyline fill="none" stroke="#000000" stroke-width="0.5" stroke-dasharray="16,0" points="74.88,384.48 521.28,384.48"/>
<polyline fill="none" stroke="#000000" stroke-width="0.5" stroke-dasharray="16,0" points="74.88,32.4 521.28,32.4"/>
<polyline fill="none" stroke="#000000" stroke-width="0.5" stroke-dasharray="16,0" points="74.88,384.48 74.88,32.4"/>
<polyline fill="none" stroke="#000000" stroke-width="0.5" stroke-dasharray="16,0" points="521.28,384.48 521.28,32.4"/>
<polyline fill="none" stroke="#000000" stroke-width="0.5" stroke-dasharray="0,3,1,3,1,3,1,3,1,0" points="74.88,384.48 74.88,32.4"/>
<polyline fill="none" stroke="#000000" stroke-width="0.5" stroke-dasharray="0,3,1,3,1,3,1,3,1,0" points="138.651,384.48 138.651,32.4"/>
<polyline fill="none" stroke="#000000" stroke-width="0.5" stroke-dasharray="0,3,1,3,1,3,1,3,1,0" points="202.423,384.48 202.423,32.4"/>
<polyline fill="none" stroke="#000000" stroke-width="0.5" stroke-dasharray="0,3,1,3,1,3,1,3,1,0" points="266.194,384.48 266.194,32.4"/>
<polyline fill="none" stroke="#000000" stroke-width="0.5" stroke-dasharray="0,3,1,3,1,3,1,3,1,0" points="329.966,384.48 329.966,32.4"/>
<polyline fill="none" stroke="#000000" stroke-width="0.5" stroke-dasharray="0,3,1,3,1,3,1,3,1,0" points="393.737,384.48 393.737,32.4"/>
<polyline fill="none" stroke="#000000" stroke-width="0.5" stroke-dasharray="0,3,1,3,1,3,1,3,1,0" points="457.509,384.48 457.509,32.4"/>
<polyline fill="none" stroke="#000000" stroke-width="0.5" stroke-dasharray="0,3,1,3,1,3,1,3,1,0" points="521.28,384.48 521.28,32.4"/>
<polyline fill="none" stroke="#000000" stroke-width="0.5" stroke-dasharray="16,0" points="74.88,384.48 74.88,380.015"/>
<polyline fill="none" stroke="#000000" stroke-width="0.5" stroke-dasharray="16,0" points="74.88,32.4 74.88,36.865"/>
<polyline fill="none" stroke="#000000" stroke-width="0.5" stroke-dasharray="16,0" points="138.651,384.48 138.651,380.015"/>
<polyline fill="none" stroke="#000000" stroke-width="0.5" stroke-dasharray="16,0" points="138.651,32.4 138.651,36.865"/>
<polyline fill="none" stroke="#000000" stroke-width="0.5" stroke-dasharray="16,0" points="202.423,384.48 202.423,380.015"/>
<polyline fill="none" stroke="#000000" stroke-width="0.5" stroke-dasharray="16,0" points="202.423,32.4 202.423,36.865"/>
<polyline fill="none" stroke="#000000" stroke-width="0.5" stroke-dasharray="16,0" points="266.194,384.48 266.194,380.015"/>
<polyline fill="none" stroke="#000000" stroke-width="0.5" stroke-dasharray="16,0" points="266.194,32.4 266.194,36.865"/>
<polyline fill="none" stroke="#000000" stroke-width="0.5" stroke-dasharray="16,0" points="329.966,384.48 329.966,380.015"/>
<polyline fill="none" stroke="#000000" stroke-width="0.5" stroke-dasharray="16,0" points="329.966,32.4 329.966,36.865"/>
<polyline fill="none" stroke="#000000" stroke-width="0.5" stroke-dasharray="16,0" points="393.737,384.48 393.737,380.015"/>
<polyline fill="none" stroke="#000000" stroke-width="0.5" stroke-dasharray="16,0" points="393.737,32.4 393.737,36.865"/>
<polyline fill="none" stroke="#000000" stroke-width="0.5" stroke-dasharray="16,0" points="457.509,384.48 457.509,380.015"/>
<polyline fill="none" stroke="#000000" stroke-width="0.5" stroke-dasharray="16,0" points="457.509,32.4 457.509,36.865"/>
<polyline fill="none" stroke="#000000" stroke-width="0.5" stroke-dasharray="16,0" points="521.28,384.48 521.28,380.015"/>
<polyline fill="none" stroke="#000000" stroke-width="0.5" stroke-dasharray="16,0" points="521.28,32.4 521.28,36.865"/>
<text fill="#000000" x="74.88" y="389.481" font-size="10" text-anchor="middle" baseline-shift="-10" font-family="Helvetica">0</text>
<text fill="#000000" x="138.651" y="389.481" font-size="10" text-anchor="middle" baseline-shift="-10" font-family="Helvetica">2</text>
<text fill="#000000" x="202.423" y="389.481" font-size="10" text-anchor="middle" baseline-shift="-10" font-family="Helvetica">4</text>
<text fill="#000000" x="266.194" y="389.481" font-size="10" text-anchor="middle" baseline-shift="-10" font-family="Helvetica">6</text>
<text fill="#000000" x="329.966" y="389.481" font-size="10" text-anchor="middle" baseline-shift="-10" font-family="Helvetica">8</text>
<text fill="#000000" x="393.737" y="389.481" font-size="10" text-anchor="middle" baseline-shift="-10" font-family="Helvetica">10</text>
<text fill="#000000" x="457.509" y="389.481" font-size="10" text-anchor="middle" baseline-shift="-10" font-family="Helvetica">12</text>
<text fill="#000000" x="521.28" y="389.481" font-size="10" text-anchor="middle" baseline-shift="-10" font-family="Helvetica">14</text>
<polyline fill="none" stroke="#000000" stroke-width="0.5" stroke-dasharray="0,3,1,3,1,3,1,3,1,0" points="74.88,384.48 521.28,384.48"/>
<polyline fill="none" stroke="#000000" stroke-width="0.5" stroke-dasharray="0,3,1,3,1,3,1,3,1,0" points="74.88,349.272 521.28,349.272"/>
<polyline fill="none" stroke="#000000" stroke-width="0.5" stroke-dasharray="0,3,1,3,1,3,1,3,1,0" points="74.88,314.064 521.28,314.064"/>
<polyline fill="none" stroke="#000000" stroke-width="0.5" stroke-dasharray="0,3,1,3,1,3,1,3,1,0" points="74.88,278.856 521.28,278.856"/>
<polyline fill="none" stroke="#000000" stroke-width="0.5" stroke-dasharray="0,3,1,3,1,3,1,3,1,0" points="74.88,243.648 521.28,243.648"/>
<polyline fill="none" stroke="#000000" stroke-width="0.5" stroke-dasharray="0,3,1,3,1,3,1,3,1,0" points="74.88,208.44 521.28,208.44"/>
<polyline fill="none" stroke="#000000" stroke-width="0.5" stroke-dasharray="0,3,1,3,1,3,1,3,1,0" points="74.88,173.232 521.28,173.232"/>
<polyline fill="none" stroke="#000000" stroke-width="0.5" stroke-dasharray="0,3,1,3,1,3,1,3,1,0" points="74.88,138.024 521.28,138.024"/>
<polyline fill="none" stroke="#000000" stroke-width="0.5" stroke-dasharray="0,3,1,3,1,3,1,3,1,0" points="74.88,102.816 521.28,102.816"/>
<polyline fill="none" stroke="#000000" stroke-width="0.5" stroke-dasharray="0,3,1,3,1,3,1,3,1,0" points="74.88,67.608 521.28,67.608"/>
<polyline fill="none" stroke="#000000" stroke-width="0.5" stroke-dasharray="0,3,1,3,1,3,1,3,1,0" points="74.88,32.4 521.28,32.4"/>
<polyline fill="none" stroke="#000000" stroke-width="0.5" stroke-dasharray="16,0" points="74.88,384.48 79.348,384.48"/>
<polyline fill="none" stroke="#000000" stroke-width="0.5" stroke-dasharray="16,0" points="521.28,384.48 516.812,384.48"/>
<polyline fill="none" stroke="#000000" stroke-width="0.5" stroke-dasharray="16,0" points="74.88,349.272 79.348,349.272"/>
<polyline fill="none" stroke="#000000" stroke-width="0.5" stroke-dasharray="16,0" points="521.28,349.272 516.812,349.272"/>
<polyline fill="none" stroke="#000000" stroke-width="0.5" stroke-dasharray="16,0" points="74.88,314.064 79.348,314.064"/>
<polyline fill="none" stroke="#000000" stroke-width="0.5" stroke-dasharray="16,0" points="521.28,314.064 516.812,314.064"/>
<polyline fill="none" stroke="#000000" stroke-width="0.5" stroke-dasharray="16,0" points="74.88,278.856 79.348,278.856"/>
<polyline fill="none" stroke="#000000" stroke-width="0.5" stroke-dasharray="16,0" points="521.28,278.856 516.812,278.856"/>
<polyline fill="none" stroke="#000000" stroke-width="0.5" stroke-dasharray="16,0" points="74.88,243.648 79.348,243.648"/>
<polyline fill="none" stroke="#000000" stroke-width="0.5" stroke-dasharray="16,0" points="521.28,243.648 516.812,243.648"/>
<polyline fill="none" stroke="#000000" stroke-width="0.5" stroke-dasharray="16,0" points="74.88,208.44 79.348,208.44"/>
<polyline fill="none" stroke="#000000" stroke-width="0.5" stroke-dasharray="16,0" points="521.28,208.44 516.812,208.44"/>
<polyline fill="none" stroke="#000000" stroke-width="0.5" stroke-dasharray="16,0" points="74.88,173.232 79.348,173.232"/>
<polyline fill="none" stroke="#000000" stroke-width="0.5" stroke-dasharray="16,0" points="521.28,173.232 516.812,173.232"/>
<polyline fill="none" stroke="#000000" stroke-width="0.5" stroke-dasharray="16,0" points="74.88,138.024 79.348,138.024"/>
<polyline fill="none" stroke="#000000" stroke-width="0.5" stroke-dasharray="16,0" points="521.28,138.024 516.812,138.024"/>
<polyline fill="none" stroke="#000000" stroke-width="0.5" stroke-dasharray="16,0" points="74.88,102.816 79.348,102.816"/>
<polyline fill="none" stroke="#000000" stroke-width="0.5" stroke-dasharray="16,0" points="521.28,102.816 516.812,102.816"/>
<polyline fill="none" stroke="#000000" stroke-width="0.5" stroke-dasharray="16,0" points="74.88,67.608 79.348,67.608"/>
<polyline fill="none" stroke="#000000" stroke-width="0.5" stroke-dasharray="16,0" points="521.28,67.608 516.812,67.608"/>
<polyline fill="none" stroke="#000000" stroke-width="0.5" stroke-dasharray="16,0" points="74.88,32.4 79.348,32.4"/>
<polyline fill="none" stroke="#000000" stroke-width="0.5" stroke-dasharray="16,0" points="521.28,32.4 516.812,32.4"/>
<text fill="#000000" x="69.8755" y="384.48" font-size="10" text-anchor="end" baseline-shift="-5" font-family="Helvetica">1e-10</text>
<text fill="#000000" x="69.8755" y="349.272" font-size="10" text-anchor="end" baseline-shift="-5" font-family="Helvetica">1e-9</text>
<text fill="#000000" x="69.8755" y="314.064" font-size="10" text-anchor="end" baseline-shift="-5" font-family="Helvetica">1e-8</text>
<text fill="#000000" x="69.8755" y="278.856" font-size="10" text-anchor="end" baseline-shift="-5" font-family="Helvetica">1e-7</text>
<text fill="#000000" x="69.8755" y="243.648" font-size="10" text-anchor="end" baseline-shift="-5" font-family="Helvetica">1e-6</text>
<text fill="#000000" x="69.8755" y="208.44" font-size="10" text-anchor="end" baseline-shift="-5" font-family="Helvetica">1e-5</text>
<text fill="#000000" x="69.8755" y="173.232" font-size="10" text-anchor="end" baseline-shift="-5" font-family="Helvetica">1e-4</text>
<text fill="#000000" x="69.8755" y="138.024" font-size="10" text-anchor="end" baseline-shift="-5" font-family="Helvetica">1e-3</text>
<text fill="#000000" x="69.8755" y="102.816" font-size="10" text-anchor="end" baseline-shift="-5" font-family="Helvetica">1e-2</text>
<text fill="#000000" x="69.8755" y="67.608" font-size="10" text-anchor="end" baseline-shift="-5" font-family="Helvetica">1e-1</text>
<text fill="#000000" x="69.8755" y="32.4" font-size="10" text-anchor="end" baseline-shift="-5" font-family="Helvetica">1e+0</text>
<polyline fill="none" stroke="#000000" stroke-width="0.5" stroke-dasharray="0,3,1,3,1,3,1,3,1,0" points="74.88,373.881 521.28,373.881"/>
<polyline fill="none" stroke="#000000" stroke-width="0.5" stroke-dasharray="0,3,1,3,1,3,1,3,1,0" points="74.88,367.682 521.28,367.682"/>
<polyline fill="none" stroke="#000000" stroke-width="0.5" stroke-dasharray="0,3,1,3,1,3,1,3,1,0" points="74.88,363.283 521.28,363.283"/>
<polyline fill="none" stroke="#000000" stroke-width="0.5" stroke-dasharray="0,3,1,3,1,3,1,3,1,0" points="74.88,359.871 521.28,359.871"/>
<polyline fill="none" stroke="#000000" stroke-width="0.5" stroke-dasharray="0,3,1,3,1,3,1,3,1,0" points="74.88,357.083 521.28,357.083"/>
<polyline fill="none" stroke="#000000" stroke-width="0.5" stroke-dasharray="0,3,1,3,1,3,1,3,1,0" points="74.88,354.726 521.28,354.726"/>
<polyline fill="none" stroke="#000000" stroke-width="0.5" stroke-dasharray="0,3,1,3,1,3,1,3,1,0" points="74.88,352.684 521.28,352.684"/>
<polyline fill="none" stroke="#000000" stroke-width="0.5" stroke-dasharray="0,3,1,3,1,3,1,3,1,0" points="74.88,350.883 521.28,350.883"/>
<polyline fill="none" stroke="#000000" stroke-width="0.5" stroke-dasharray="0,3,1,3,1,3,1,3,1,0" points="74.88,338.673 521.28,338.673"/>
<polyline fill="none" stroke="#000000" stroke-width="0.5" stroke-dasharray="0,3,1,3,1,3,1,3,1,0" points="74.88,332.474 521.28,332.474"/>
<polyline fill="none" stroke="#000000" stroke-width="0.5" stroke-dasharray="0,3,1,3,1,3,1,3,1,0" points="74.88,328.075 521.28,328.075"/>
<polyline fill="none" stroke="#000000" stroke-width="0.5" stroke-dasharray="0,3,1,3,1,3,1,3,1,0" points="74.88,324.663 521.28,324.663"/>
<polyline fill="none" stroke="#000000" stroke-width="0.5" stroke-dasharray="0,3,1,3,1,3,1,3,1,0" points="74.88,321.875 521.28,321.875"/>
<polyline fill="none" stroke="#000000" stroke-width="0.5" stroke-dasharray="0,3,1,3,1,3,1,3,1,0" points="74.88,319.518 521.28,319.518"/>
<polyline fill="none" stroke="#000000" stroke-width="0.5" stroke-dasharray="0,3,1,3,1,3,1,3,1,0" points="74.88,317.476 521.28,317.476"/>
<polyline fill="none" stroke="#000000" stroke-width="0.5" stroke-dasharray="0,3,1,3,1,3,1,3,1,0" points="74.88,315.675 521.28,315.675"/>
<polyline fill="none" stroke="#000000" stroke-width="0.5" stroke-dasharray="0,3,1,3,1,3,1,3,1,0" points="74.88,303.465 521.28,303.465"/>
<polyline fill="none" stroke="#000000" stroke-width="0.5" stroke-dasharray="0,3,1,3,1,3,1,3,1,0" points="74.88,297.266 521.28,297.266"/>
<polyline fill="none" stroke="#000000" stroke-width="0.5" stroke-dasharray="0,3,1,3,1,3,1,3,1,0" points="74.88,292.867 521.28,292.867"/>
<polyline fill="none" stroke="#000000" stroke-width="0.5" stroke-dasharray="0,3,1,3,1,3,1,3,1,0" points="74.88,289.455 521.28,289.455"/>
<polyline fill="none" stroke="#000000" stroke-width="0.5" stroke-dasharray="0,3,1,3,1,3,1,3,1,0" points="74.88,286.667 521.28,286.667"/>
<polyline fill="none" stroke="#000000" stroke-width="0.5" stroke-dasharray="0,3,1,3,1,3,1,3,1,0" points="74.88,284.31 521.28,284.31"/>
<polyline fill="none" stroke="#000000" stroke-width="0.5" stroke-dasharray="0,3,1,3,1,3,1,3,1,0" points="74.88,282.268 521.28,282.268"/>
<polyline fill="none" stroke="#000000" stroke-width="0.5" stroke-dasharray="0,3,1,3,1,3,1,3,1,0" points="74.88,280.467 521.28,280.467"/>
<polyline fill="none" stroke="#000000" stroke-width="0.5" stroke-dasharray="0,3,1,3,1,3,1,3,1,0" points="74.88,268.257 521.28,268.257"/>
<polyline fill="none" stroke="#000000" stroke-width="0.5" stroke-dasharray="0,3,1,3,1,3,1,3,1,0" points="74.88,262.058 521.28,262.058"/>
<polyline fill="none" stroke="#000000" stroke-width="0.5" stroke-dasharray="0,3,1,3,1,3,1,3,1,0" points="74.88,257.659 521.28,257.659"/>
<polyline fill="none" stroke="#000000" stroke-width="0.5" stroke-dasharray="0,3,1,3,1,3,1,3,1,0" points="74.88,254.247 521.28,254.247"/>
<polyline fill="none" stroke="#000000" stroke-width="0.5" stroke-dasharray="0,3,1,3,1,3,1,3,1,0" points="74.88,251.459 521.28,251.459"/>
<polyline fill="none" stroke="#000000" stroke-width="0.5" stroke-dasharray="0,3,1,3,1,3,1,3,1,0" points="74.88,249.102 521.28,249.102"/>
<polyline fill="none" stroke="#000000" stroke-width="0.5" stroke-dasharray="0,3,1,3,1,3,1,3,1,0" points="74.88,247.06 521.28,247.06"/>
<polyline fill="none" stroke="#000000" stroke-width="0.5" stroke-dasharray="0,3,1,3,1,3,1,3,1,0" points="74.88,245.259 521.28,245.259"/>
<polyline fill="none" stroke="#000000" stroke-width="0.5" stroke-dasharray="0,3,1,3,1,3,1,3,1,0" points="74.88,233.049 521.28,233.049"/>
<polyline fill="none" stroke="#000000" stroke-width="0.5" stroke-dasharray="0,3,1,3,1,3,1,3,1,0" points="74.88,226.85 521.28,226.85"/>
<polyline fill="none" stroke="#000000" stroke-width="0.5" stroke-dasharray="0,3,1,3,1,3,1,3,1,0" points="74.88,222.451 521.28,222.451"/>
<polyline fill="none" stroke="#000000" stroke-width="0.5" stroke-dasharray="0,3,1,3,1,3,1,3,1,0" points="74.88,219.039 521.28,219.039"/>
<polyline fill="none" stroke="#000000" stroke-width="0.5" stroke-dasharray="0,3,1,3,1,3,1,3,1,0" points="74.88,216.251 521.28,216.251"/>
<polyline fill="none" stroke="#000000" stroke-width="0.5" stroke-dasharray="0,3,1,3,1,3,1,3,1,0" points="74.88,213.894 521.28,213.894"/>
<polyline fill="none" stroke="#000000" stroke-width="0.5" stroke-dasharray="0,3,1,3,1,3,1,3,1,0" points="74.88,211.852 521.28,211.852"/>
<polyline fill="none" stroke="#000000" stroke-width="0.5" stroke-dasharray="0,3,1,3,1,3,1,3,1,0" points="74.88,210.051 521.28,210.051"/>
<polyline fill="none" stroke="#000000" stroke-width="0.5" stroke-dasharray="0,3,1,3,1,3,1,3,1,0" points="74.88,197.841 521.28,197.841"/>
<polyline fill="none" stroke="#000000" stroke-width="0.5" stroke-dasharray="0,3,1,3,1,3,1,3,1,0" points="74.88,191.642 521.28,191.642"/>
<polyline fill="none" stroke="#000000" stroke-width="0.5" stroke-dasharray="0,3,1,3,1,3,1,3,1,0" points="74.88,187.243 521.28,187.243"/>
<polyline fill="none" stroke="#000000" stroke-width="0.5" stroke-dasharray="0,3,1,3,1,3,1,3,1,0" points="74.88,183.831 521.28,183.831"/>
<polyline fill="none" stroke="#000000" stroke-width="0.5" stroke-dasharray="0,3,1,3,1,3,1,3,1,0" points="74.88,181.043 521.28,181.043"/>
<polyline fill="none" stroke="#000000" stroke-width="0.5" stroke-dasharray="0,3,1,3,1,3,1,3,1,0" points="74.88,178.686 521.28,178.686"/>
<polyline fill="none" stroke="#000000" stroke-width="0.5" stroke-dasharray="0,3,1,3,1,3,1,3,1,0" points="74.88,176.644 521.28,176.644"/>
<polyline fill="none" stroke="#000000" stroke-width="0.5" stroke-dasharray="0,3,1,3,1,3,1,3,1,0" points="74.88,174.843 521.28,174.843"/>
<polyline fill="none" stroke="#000000" stroke-width="0.5" stroke-dasharray="0,3,1,3,1,3,1,3,1,0" points="74.88,162.633 521.28,162.633"/>
<polyline fill="none" stroke="#000000" stroke-width="0.5" stroke-dasharray="0,3,1,3,1,3,1,3,1,0" points="74.88,156.434 521.28,156.434"/>
<polyline fill="none" stroke="#000000" stroke-width="0.5" stroke-dasharray="0,3,1,3,1,3,1,3,1,0" points="74.88,152.035 521.28,152.035"/>
<polyline fill="none" stroke="#000000" stroke-width="0.5" stroke-dasharray="0,3,1,3,1,3,1,3,1,0" points="74.88,148.623 521.28,148.623"/>
<polyline fill="none" stroke="#000000" stroke-width="0.5" stroke-dasharray="0,3,1,3,1,3,1,3,1,0" points="74.88,145.835 521.28,145.835"/>
<polyline fill="none" stroke="#000000" stroke-width="0.5" stroke-dasharray="0,3,1,3,1,3,1,3,1,0" points="74.88,143.478 521.28,143.478"/>
<polyline fill="none" stroke="#000000" stroke-width="0.5" stroke-dasharray="0,3,1,3,1,3,1,3,1,0" points="74.88,141.436 521.28,141.436"/>
<polyline fill="none" stroke="#000000" stroke-width="0.5" stroke-dasharray="0,3,1,3,1,3,1,3,1,0" points="74.88,139.635 521.28,139.635"/>
<polyline fill="none" stroke="#000000" stroke-width="0.5" stroke-dasharray="0,3,1,3,1,3,1,3,1,0" points="74.88,127.425 521.28,127.425"/>
<polyline fill="none" stroke="#000000" stroke-width="0.5" stroke-dasharray="0,3,1,3,1,3,1,3,1,0" points="74.88,121.226 521.28,121.226"/>
<polyline fill="none" stroke="#000000" stroke-width="0.5" stroke-dasharray="0,3,1,3,1,3,1,3,1,0" points="74.88,116.827 521.28,116.827"/>
<polyline fill="none" stroke="#000000" stroke-width="0.5" stroke-dasharray="0,3,1,3,1,3,1,3,1,0" points="74.88,113.415 521.28,113.415"/>
<polyline fill="none" stroke="#000000" stroke-width="0.5" stroke-dasharray="0,3,1,3,1,3,1,3,1,0" points="74.88,110.627 521.28,110.627"/>
<polyline fill="none" stroke="#000000" stroke-width="0.5" stroke-dasharray="0,3,1,3,1,3,1,3,1,0" points="74.88,108.27 521.28,108.27"/>
<polyline fill="none" stroke="#000000" stroke-width="0.5" stroke-dasharray="0,3,1,3,1,3,1,3,1,0" points="74.88,106.228 521.28,106.228"/>
<polyline fill="none" stroke="#000000" stroke-width="0.5" stroke-dasharray="0,3,1,3,1,3,1,3,1,0" points="74.88,104.427 521.28,104.427"/>
<polyline fill="none" stroke="#000000" stroke-width="0.5" stroke-dasharray="0,3,1,3,1,3,1,3,1,0" points="74.88,92.2173 521.28,92.2173"/>
<polyline fill="none" stroke="#000000" stroke-width="0.5" stroke-dasharray="0,3,1,3,1,3,1,3,1,0" points="74.88,86.0175 521.28,86.0175"/>
<polyline fill="none" stroke="#000000" stroke-width="0.5" stroke-dasharray="0,3,1,3,1,3,1,3,1,0" points="74.88,81.6187 521.28,81.6187"/>
<polyline fill="none" stroke="#000000" stroke-width="0.5" stroke-dasharray="0,3,1,3,1,3,1,3,1,0" points="74.88,78.2067 521.28,78.2067"/>
<polyline fill="none" stroke="#000000" stroke-width="0.5" stroke-dasharray="0,3,1,3,1,3,1,3,1,0" points="74.88,75.4189 521.28,75.4189"/>
<polyline fill="none" stroke="#000000" stroke-width="0.5" stroke-dasharray="0,3,1,3,1,3,1,3,1,0" points="74.88,73.0618 521.28,73.0618"/>
<polyline fill="none" stroke="#000000" stroke-width="0.5" stroke-dasharray="0,3,1,3,1,3,1,3,1,0" points="74.88,71.02 521.28,71.02"/>
<polyline fill="none" stroke="#000000" stroke-width="0.5" stroke-dasharray="0,3,1,3,1,3,1,3,1,0" points="74.88,69.2191 521.28,69.2191"/>
<polyline fill="none" stroke="#000000" stroke-width="0.5" stroke-dasharray="0,3,1,3,1,3,1,3,1,0" points="74.88,57.0093 521.28,57.0093"/>
<polyline fill="none" stroke="#000000" stroke-width="0.5" stroke-dasharray="0,3,1,3,1,3,1,3,1,0" points="74.88,50.8095 521.28,50.8095"/>
<polyline fill="none" stroke="#000000" stroke-width="0.5" stroke-dasharray="0,3,1,3,1,3,1,3,1,0" points="74.88,46.4107 521.28,46.4107"/>
<polyline fill="none" stroke="#000000" stroke-width="0.5" stroke-dasharray="0,3,1,3,1,3,1,3,1,0" points="74.88,42.9987 521.28,42.9987"/>
<polyline fill="none" stroke="#000000" stroke-width="0.5" stroke-dasharray="0,3,1,3,1,3,1,3,1,0" points="74.88,40.2109 521.28,40.2109"/>
<polyline fill="none" stroke="#000000" stroke-width="0.5" stroke-dasharray="0,3,1,3,1,3,1,3,1,0" points="74.88,37.8538 521.28,37.8538"/>
<polyline fill="none" stroke="#000000" stroke-width="0.5" stroke-dasharray="0,3,1,3,1,3,1,3,1,0" points="74.88,35.812 521.28,35.812"/>
<polyline fill="none" stroke="#000000" stroke-width="0.5" stroke-dasharray="0,3,1,3,1,3,1,3,1,0" points="74.88,34.011 521.28,34.011"/>
<text fill="#000000" x="298.08" y="400.481" font-size="10" text-anchor="middle" baseline-shift="-10" font-family="Helvetica">E_{B} / N_{0} (dB)</text>
<text fill="#000000" x="37.8755" y="208.44" font-size="10" transform="rotate(-90, 37.8755, 208.44)" text-anchor="middle" baseline-shift="0" font-family="Helvetica">Perror</text>
<polyline fill="none" stroke="#0000ff" stroke-width="0.5" points="74.88,71.2803 106.766,76.397 138.651,82.603 170.537,90.1613 202.423,99.403 234.309,110.745 266.194,124.712 298.08,141.967 329.966,163.345 361.851,189.896 393.737,222.948 425.623,264.169 457.509,315.665 489.394,380.086"/>
<polyline fill="none" stroke="#000000" stroke-width="0.5" points="77.88,49.9672 77.3071,51.7305 75.8071,52.8204 73.9529,52.8204 72.4529,51.7305 71.88,49.9672 72.4529,48.2038 73.9529,47.114 75.8071,47.114 77.3071,48.2038 77.88,49.9672"/>
<polyline fill="none" stroke="#000000" stroke-width="0.5" points="109.766,52.8356 109.193,54.5989 107.693,55.6887 105.839,55.6887 104.339,54.5989 103.766,52.8356 104.339,51.0722 105.839,49.9824 107.693,49.9824 109.193,51.0722 109.766,52.8356"/>
<polyline fill="none" stroke="#000000" stroke-width="0.5" points="141.651,56.4354 141.078,58.1987 139.578,59.2885 137.724,59.2885 136.224,58.1987 135.651,56.4354 136.224,54.672 137.724,53.5822 139.578,53.5822 141.078,54.672 141.651,56.4354"/>
<polyline fill="none" stroke="#000000" stroke-width="0.5" points="173.537,60.636 172.964,62.3993 171.464,63.4891 169.61,63.4891 168.11,62.3993 167.537,60.636 168.11,58.8726 169.61,57.7828 171.464,57.7828 172.964,58.8726 173.537,60.636"/>
<polyline fill="none" stroke="#000000" stroke-width="0.5" points="205.423,65.882 204.85,67.6453 203.35,68.7351 201.496,68.7351 199.996,67.6453 199.423,65.882 199.996,64.1186 201.496,63.0288 203.35,63.0288 204.85,64.1186 205.423,65.882"/>
<polyline fill="none" stroke="#000000" stroke-width="0.5" points="237.309,71.6462 236.736,73.4095 235.236,74.4994 233.382,74.4994 231.882,73.4095 231.309,71.6462 231.882,69.8828 233.382,68.793 235.236,68.793 236.736,69.8828 237.309,71.6462"/>
<polyline fill="none" stroke="#000000" stroke-width="0.5" points="269.194,79.2507 268.621,81.014 267.121,82.1039 265.267,82.1039 263.767,81.014 263.194,79.2507 263.767,77.4873 265.267,76.3975 267.121,76.3975 268.621,77.4873 269.194,79.2507"/>
<polyline fill="none" stroke="#000000" stroke-width="0.5" points="301.08,89.0395 300.507,90.8029 299.007,91.8927 297.153,91.8927 295.653,90.8029 295.08,89.0395 295.653,87.2762 297.153,86.1863 299.007,86.1863 300.507,87.2762 301.08,89.0395"/>
<polyline fill="none" stroke="#000000" stroke-width="0.5" points="332.966,99.0414 332.393,100.805 330.893,101.895 329.039,101.895 327.539,100.805 326.966,99.0414 327.539,97.278 329.039,96.1882 330.893,96.1882 332.393,97.278 332.966,99.0414"/>
<polyline fill="none" stroke="#000000" stroke-width="0.5" points="364.851,113.599 364.279,115.363 362.779,116.452 360.924,116.452 359.424,115.363 358.851,113.599 359.424,111.836 360.924,110.746 362.779,110.746 364.279,111.836 364.851,113.599"/>
<polyline fill="none" stroke="#000000" stroke-width="0.5" points="396.737,132.555 396.164,134.318 394.664,135.408 392.81,135.408 391.31,134.318 390.737,132.555 391.31,130.792 392.81,129.702 394.664,129.702 396.164,130.792 396.737,132.555"/>
<polyline fill="none" stroke="#000000" stroke-width="0.5" points="428.623,151.41 428.05,153.174 426.55,154.264 424.696,154.264 423.196,153.174 422.623,151.41 423.196,149.647 424.696,148.557 426.55,148.557 428.05,149.647 428.623,151.41"/>
<polyline fill="none" stroke="#000000" stroke-width="0.5" points="460.509,178.225 459.936,179.988 458.436,181.078 456.582,181.078 455.082,179.988 454.509,178.225 455.082,176.461 456.582,175.372 458.436,175.372 459.936,176.461 460.509,178.225"/>
<polyline fill="none" stroke="#000000" stroke-width="0.5" points="492.394,213.909 491.821,215.672 490.321,216.762 488.467,216.762 486.967,215.672 486.394,213.909 486.967,212.146 488.467,211.056 490.321,211.056 491.821,212.146 492.394,213.909"/>
<polyline fill="none" stroke="#000000" stroke-width="0.5" stroke-dasharray="16,0" points="422.846,63.266 518.534,63.266"/>
<polyline fill="none" stroke="#000000" stroke-width="0.5" stroke-dasharray="16,0" points="422.846,35.1458 518.534,35.1458"/>
<polyline fill="none" stroke="#000000" stroke-width="0.5" stroke-dasharray="16,0" points="422.846,63.266 422.846,35.1458"/>
<polyline fill="none" stroke="#000000" stroke-width="0.5" stroke-dasharray="16,0" points="518.534,63.266 518.534,35.1458"/>
<text fill="#000000" x="448.931" y="42.1758" font-size="10" text-anchor="start" baseline-shift="-5" font-family="Helvetica">Teorico</text>
<text fill="#000000" x="448.931" y="56.236" font-size="10" text-anchor="start" baseline-shift="-5" font-family="Helvetica">Experimental</text>
<polyline fill="none" stroke="#0000ff" stroke-width="0.5" points="425.592,42.1758 446.185,42.1758"/>
<polyline fill="none" stroke="#000000" stroke-width="0.5" points="438.889,56.236 438.316,57.9993 436.816,59.0891 434.962,59.0891 433.462,57.9993 432.889,56.236 433.462,54.4726 434.962,53.3828 436.816,53.3828 438.316,54.4726 438.889,56.236"/>
<text fill="#000000" x="298.08" y="22.4" font-size="10" text-anchor="middle" baseline-shift="0" font-family="Helvetica">Perror BPSK</text>
</g>
</svg>
