<?xml version="1.0" encoding="UTF-8" standalone="no"?>
<svg xmlns="http://www.w3.org/2000/svg"
     xmlns:xlink="http://www.w3.org/1999/xlink"
     width="576px" height="433px" viewBox="0 0 576 433">
<title>glps_renderer figure</title>
<desc>
Creator: GL2PS 1.3.8, (C) 1999-2012 C. Geuzaine
For: Octave
CreationDate: Thu Jun 15 00:39:04 2017
</desc>
<defs>
</defs>
<g shape-rendering="crispEdges">
<polygon fill="#ffffff" points="74.88,384.48 521.28,384.48 74.88,32.4"/>
<polygon fill="#ffffff" points="521.28,384.48 521.28,32.4 74.88,32.4"/>
<polygon fill="#ffffff" points="422.846,63.266 518.534,63.266 422.846,35.1458"/>
<polygon fill="#ffffff" points="518.534,63.266 518.534,35.1458 422.846,35.1458"/>
<polyline fill="none" stroke="#000000" stroke-width="0.5" stroke-dasharray="16,0" points="74.88,384.48 521.28,384.48"/>
<polyline fill="none" stroke="#000000" stroke-width="0.5" stroke-dasharray="16,0" points="74.88,32.4 521.28,32.4"/>
<polyline fill="none" stroke="#000000" stroke-width="0.5" stroke-dasharray="16,0" points="74.88,384.48 74.88,32.4"/>
<polyline fill="none" stroke="#000000" stroke-width="0.5" stroke-dasharray="16,0" points="521.28,384.48 521.28,32.4"/>
<polyline fill="none" stroke="#000000" stroke-width="0.5" stroke-dasharray="0,3,1,3,1,3,1,3,1,0" points="74.88,384.48 74.88,32.4"/>
<polyline fill="none" stroke="#000000" stroke-width="0.5" stroke-dasharray="0,3,1,3,1,3,1,3,1,0" points="138.651,384.48 138.651,32.4"/>
<polyline fill="none" stroke="#000000" stroke-width="0.5" stroke-dasharray="0,3,1,3,1,3,1,3,1,0" points="202.423,384.48 202.423,32.4"/>
<polyline fill="none" stroke="#000000" stroke-width="0.5" stroke-dasharray="0,3,1,3,1,3,1,3,1,0" points="266.194,384.48 266.194,32.4"/>
<polyline fill="none" stroke="#000000" stroke-width="0.5" stroke-dasharray="0,3,1,3,1,3,1,3,1,0" points="329.966,384.48 329.966,32.4"/>
<polyline fill="none" stroke="#000000" stroke-width="0.5" stroke-dasharray="0,3,1,3,1,3,1,3,1,0" points="393.737,384.48 393.737,32.4"/>
<polyline fill="none" stroke="#000000" stroke-width="0.5" stroke-dasharray="0,3,1,3,1,3,1,3,1,0" points="457.509,384.48 457.509,32.4"/>
<polyline fill="none" stroke="#000000" stroke-width="0.5" stroke-dasharray="0,3,1,3,1,3,1,3,1,0" points="521.28,384.48 521.28,32.4"/>
<polyline fill="none" stroke="#000000" stroke-width="0.5" stroke-dasharray="16,0" points="74.88,384.48 74.88,380.015"/>
<polyline fill="none" stroke="#000000" stroke-width="0.5" stroke-dasharray="16,0" points="74.88,32.4 74.88,36.865"/>
<polyline fill="none" stroke="#000000" stroke-width="0.5" stroke-dasharray="16,0" points="138.651,384.48 138.651,380.015"/>
<polyline fill="none" stroke="#000000" stroke-width="0.5" stroke-dasharray="16,0" points="138.651,32.4 138.651,36.865"/>
<polyline fill="none" stroke="#000000" stroke-width="0.5" stroke-dasharray="16,0" points="202.423,384.48 202.423,380.015"/>
<polyline fill="none" stroke="#000000" stroke-width="0.5" stroke-dasharray="16,0" points="202.423,32.4 202.423,36.865"/>
<polyline fill="none" stroke="#000000" stroke-width="0.5" stroke-dasharray="16,0" points="266.194,384.48 266.194,380.015"/>
<polyline fill="none" stroke="#000000" stroke-width="0.5" stroke-dasharray="16,0" points="266.194,32.4 266.194,36.865"/>
<polyline fill="none" stroke="#000000" stroke-width="0.5" stroke-dasharray="16,0" points="329.966,384.48 329.966,380.015"/>
<polyline fill="none" stroke="#000000" stroke-width="0.5" stroke-dasharray="16,0" points="329.966,32.4 329.966,36.865"/>
<polyline fill="none" stroke="#000000" stroke-width="0.5" stroke-dasharray="16,0" points="393.737,384.48 393.737,380.015"/>
<polyline fill="none" stroke="#000000" stroke-width="0.5" stroke-dasharray="16,0" points="393.737,32.4 393.737,36.865"/>
<polyline fill="none" stroke="#000000" stroke-width="0.5" stroke-dasharray="16,0" points="457.509,384.48 457.509,380.015"/>
<polyline fill="none" stroke="#000000" stroke-width="0.5" stroke-dasharray="16,0" points="457.509,32.4 457.509,36.865"/>
<polyline fill="none" stroke="#000000" stroke-width="0.5" stroke-dasharray="16,0" points="521.28,384.48 521.28,380.015"/>
<polyline fill="none" stroke="#000000" stroke-width="0.5" stroke-dasharray="16,0" points="521.28,32.4 521.28,36.865"/>
<text fill="#000000" x="74.88" y="389.481" font-size="10" text-anchor="middle" baseline-shift="-10" font-family="Helvetica">0</text>
<text fill="#000000" x="138.651" y="389.481" font-size="10" text-anchor="middle" baseline-shift="-10" font-family="Helvetica">2</text>
<text fill="#000000" x="202.423" y="389.481" font-size="10" text-anchor="middle" baseline-shift="-10" font-family="Helvetica">4</text>
<text fill="#000000" x="266.194" y="389.481" font-size="10" text-anchor="middle" baseline-shift="-10" font-family="Helvetica">6</text>
<text fill="#000000" x="329.966" y="389.481" font-size="10" text-anchor="middle" baseline-shift="-10" font-family="Helvetica">8</text>
<text fill="#000000" x="393.737" y="389.481" font-size="10" text-anchor="middle" baseline-shift="-10" font-family="Helvetica">10</text>
<text fill="#000000" x="457.509" y="389.481" font-size="10" text-anchor="middle" baseline-shift="-10" font-family="Helvetica">12</text>
<text fill="#000000" x="521.28" y="389.481" font-size="10" text-anchor="middle" baseline-shift="-10" font-family="Helvetica">14</text>
<polyline fill="none" stroke="#000000" stroke-width="0.5" stroke-dasharray="0,3,1,3,1,3,1,3,1,0" points="74.88,384.48 521.28,384.48"/>
<polyline fill="none" stroke="#000000" stroke-width="0.5" stroke-dasharray="0,3,1,3,1,3,1,3,1,0" points="74.88,325.8 521.28,325.8"/>
<polyline fill="none" stroke="#000000" stroke-width="0.5" stroke-dasharray="0,3,1,3,1,3,1,3,1,0" points="74.88,267.12 521.28,267.12"/>
<polyline fill="none" stroke="#000000" stroke-width="0.5" stroke-dasharray="0,3,1,3,1,3,1,3,1,0" points="74.88,208.44 521.28,208.44"/>
<polyline fill="none" stroke="#000000" stroke-width="0.5" stroke-dasharray="0,3,1,3,1,3,1,3,1,0" points="74.88,149.76 521.28,149.76"/>
<polyline fill="none" stroke="#000000" stroke-width="0.5" stroke-dasharray="0,3,1,3,1,3,1,3,1,0" points="74.88,91.08 521.28,91.08"/>
<polyline fill="none" stroke="#000000" stroke-width="0.5" stroke-dasharray="0,3,1,3,1,3,1,3,1,0" points="74.88,32.4 521.28,32.4"/>
<polyline fill="none" stroke="#000000" stroke-width="0.5" stroke-dasharray="16,0" points="74.88,384.48 79.348,384.48"/>
<polyline fill="none" stroke="#000000" stroke-width="0.5" stroke-dasharray="16,0" points="521.28,384.48 516.812,384.48"/>
<polyline fill="none" stroke="#000000" stroke-width="0.5" stroke-dasharray="16,0" points="74.88,325.8 79.348,325.8"/>
<polyline fill="none" stroke="#000000" stroke-width="0.5" stroke-dasharray="16,0" points="521.28,325.8 516.812,325.8"/>
<polyline fill="none" stroke="#000000" stroke-width="0.5" stroke-dasharray="16,0" points="74.88,267.12 79.348,267.12"/>
<polyline fill="none" stroke="#000000" stroke-width="0.5" stroke-dasharray="16,0" points="521.28,267.12 516.812,267.12"/>
<polyline fill="none" stroke="#000000" stroke-width="0.5" stroke-dasharray="16,0" points="74.88,208.44 79.348,208.44"/>
<polyline fill="none" stroke="#000000" stroke-width="0.5" stroke-dasharray="16,0" points="521.28,208.44 516.812,208.44"/>
<polyline fill="none" stroke="#000000" stroke-width="0.5" stroke-dasharray="16,0" points="74.88,149.76 79.348,149.76"/>
<polyline fill="none" stroke="#000000" stroke-width="0.5" stroke-dasharray="16,0" points="521.28,149.76 516.812,149.76"/>
<polyline fill="none" stroke="#000000" stroke-width="0.5" stroke-dasharray="16,0" points="74.88,91.08 79.348,91.08"/>
<polyline fill="none" stroke="#000000" stroke-width="0.5" stroke-dasharray="16,0" points="521.28,91.08 516.812,91.08"/>
<polyline fill="none" stroke="#000000" stroke-width="0.5" stroke-dasharray="16,0" points="74.88,32.4 79.348,32.4"/>
<polyline fill="none" stroke="#000000" stroke-width="0.5" stroke-dasharray="16,0" points="521.28,32.4 516.812,32.4"/>
<text fill="#000000" x="69.8755" y="384.48" font-size="10" text-anchor="end" baseline-shift="-5" font-family="Helvetica">1e-6</text>
<text fill="#000000" x="69.8755" y="325.8" font-size="10" text-anchor="end" baseline-shift="-5" font-family="Helvetica">1e-5</text>
<text fill="#000000" x="69.8755" y="267.12" font-size="10" text-anchor="end" baseline-shift="-5" font-family="Helvetica">1e-4</text>
<text fill="#000000" x="69.8755" y="208.44" font-size="10" text-anchor="end" baseline-shift="-5" font-family="Helvetica">1e-3</text>
<text fill="#000000" x="69.8755" y="149.76" font-size="10" text-anchor="end" baseline-shift="-5" font-family="Helvetica">1e-2</text>
<text fill="#000000" x="69.8755" y="91.08" font-size="10" text-anchor="end" baseline-shift="-5" font-family="Helvetica">1e-1</text>
<text fill="#000000" x="69.8755" y="32.4" font-size="10" text-anchor="end" baseline-shift="-5" font-family="Helvetica">1e+0</text>
<polyline fill="none" stroke="#000000" stroke-width="0.5" stroke-dasharray="0,3,1,3,1,3,1,3,1,0" points="74.88,366.816 521.28,366.816"/>
<polyline fill="none" stroke="#000000" stroke-width="0.5" stroke-dasharray="0,3,1,3,1,3,1,3,1,0" points="74.88,356.483 521.28,356.483"/>
<polyline fill="none" stroke="#000000" stroke-width="0.5" stroke-dasharray="0,3,1,3,1,3,1,3,1,0" points="74.88,349.151 521.28,349.151"/>
<polyline fill="none" stroke="#000000" stroke-width="0.5" stroke-dasharray="0,3,1,3,1,3,1,3,1,0" points="74.88,343.464 521.28,343.464"/>
<polyline fill="none" stroke="#000000" stroke-width="0.5" stroke-dasharray="0,3,1,3,1,3,1,3,1,0" points="74.88,338.818 521.28,338.818"/>
<polyline fill="none" stroke="#000000" stroke-width="0.5" stroke-dasharray="0,3,1,3,1,3,1,3,1,0" points="74.88,334.89 521.28,334.89"/>
<polyline fill="none" stroke="#000000" stroke-width="0.5" stroke-dasharray="0,3,1,3,1,3,1,3,1,0" points="74.88,331.487 521.28,331.487"/>
<polyline fill="none" stroke="#000000" stroke-width="0.5" stroke-dasharray="0,3,1,3,1,3,1,3,1,0" points="74.88,328.485 521.28,328.485"/>
<polyline fill="none" stroke="#000000" stroke-width="0.5" stroke-dasharray="0,3,1,3,1,3,1,3,1,0" points="74.88,308.136 521.28,308.136"/>
<polyline fill="none" stroke="#000000" stroke-width="0.5" stroke-dasharray="0,3,1,3,1,3,1,3,1,0" points="74.88,297.803 521.28,297.803"/>
<polyline fill="none" stroke="#000000" stroke-width="0.5" stroke-dasharray="0,3,1,3,1,3,1,3,1,0" points="74.88,290.471 521.28,290.471"/>
<polyline fill="none" stroke="#000000" stroke-width="0.5" stroke-dasharray="0,3,1,3,1,3,1,3,1,0" points="74.88,284.784 521.28,284.784"/>
<polyline fill="none" stroke="#000000" stroke-width="0.5" stroke-dasharray="0,3,1,3,1,3,1,3,1,0" points="74.88,280.138 521.28,280.138"/>
<polyline fill="none" stroke="#000000" stroke-width="0.5" stroke-dasharray="0,3,1,3,1,3,1,3,1,0" points="74.88,276.21 521.28,276.21"/>
<polyline fill="none" stroke="#000000" stroke-width="0.5" stroke-dasharray="0,3,1,3,1,3,1,3,1,0" points="74.88,272.807 521.28,272.807"/>
<polyline fill="none" stroke="#000000" stroke-width="0.5" stroke-dasharray="0,3,1,3,1,3,1,3,1,0" points="74.88,269.805 521.28,269.805"/>
<polyline fill="none" stroke="#000000" stroke-width="0.5" stroke-dasharray="0,3,1,3,1,3,1,3,1,0" points="74.88,249.456 521.28,249.456"/>
<polyline fill="none" stroke="#000000" stroke-width="0.5" stroke-dasharray="0,3,1,3,1,3,1,3,1,0" points="74.88,239.123 521.28,239.123"/>
<polyline fill="none" stroke="#000000" stroke-width="0.5" stroke-dasharray="0,3,1,3,1,3,1,3,1,0" points="74.88,231.791 521.28,231.791"/>
<polyline fill="none" stroke="#000000" stroke-width="0.5" stroke-dasharray="0,3,1,3,1,3,1,3,1,0" points="74.88,226.104 521.28,226.104"/>
<polyline fill="none" stroke="#000000" stroke-width="0.5" stroke-dasharray="0,3,1,3,1,3,1,3,1,0" points="74.88,221.458 521.28,221.458"/>
<polyline fill="none" stroke="#000000" stroke-width="0.5" stroke-dasharray="0,3,1,3,1,3,1,3,1,0" points="74.88,217.53 521.28,217.53"/>
<polyline fill="none" stroke="#000000" stroke-width="0.5" stroke-dasharray="0,3,1,3,1,3,1,3,1,0" points="74.88,214.127 521.28,214.127"/>
<polyline fill="none" stroke="#000000" stroke-width="0.5" stroke-dasharray="0,3,1,3,1,3,1,3,1,0" points="74.88,211.125 521.28,211.125"/>
<polyline fill="none" stroke="#000000" stroke-width="0.5" stroke-dasharray="0,3,1,3,1,3,1,3,1,0" points="74.88,190.776 521.28,190.776"/>
<polyline fill="none" stroke="#000000" stroke-width="0.5" stroke-dasharray="0,3,1,3,1,3,1,3,1,0" points="74.88,180.443 521.28,180.443"/>
<polyline fill="none" stroke="#000000" stroke-width="0.5" stroke-dasharray="0,3,1,3,1,3,1,3,1,0" points="74.88,173.111 521.28,173.111"/>
<polyline fill="none" stroke="#000000" stroke-width="0.5" stroke-dasharray="0,3,1,3,1,3,1,3,1,0" points="74.88,167.424 521.28,167.424"/>
<polyline fill="none" stroke="#000000" stroke-width="0.5" stroke-dasharray="0,3,1,3,1,3,1,3,1,0" points="74.88,162.778 521.28,162.778"/>
<polyline fill="none" stroke="#000000" stroke-width="0.5" stroke-dasharray="0,3,1,3,1,3,1,3,1,0" points="74.88,158.85 521.28,158.85"/>
<polyline fill="none" stroke="#000000" stroke-width="0.5" stroke-dasharray="0,3,1,3,1,3,1,3,1,0" points="74.88,155.447 521.28,155.447"/>
<polyline fill="none" stroke="#000000" stroke-width="0.5" stroke-dasharray="0,3,1,3,1,3,1,3,1,0" points="74.88,152.445 521.28,152.445"/>
<polyline fill="none" stroke="#000000" stroke-width="0.5" stroke-dasharray="0,3,1,3,1,3,1,3,1,0" points="74.88,132.096 521.28,132.096"/>
<polyline fill="none" stroke="#000000" stroke-width="0.5" stroke-dasharray="0,3,1,3,1,3,1,3,1,0" points="74.88,121.763 521.28,121.763"/>
<polyline fill="none" stroke="#000000" stroke-width="0.5" stroke-dasharray="0,3,1,3,1,3,1,3,1,0" points="74.88,114.431 521.28,114.431"/>
<polyline fill="none" stroke="#000000" stroke-width="0.5" stroke-dasharray="0,3,1,3,1,3,1,3,1,0" points="74.88,108.744 521.28,108.744"/>
<polyline fill="none" stroke="#000000" stroke-width="0.5" stroke-dasharray="0,3,1,3,1,3,1,3,1,0" points="74.88,104.098 521.28,104.098"/>
<polyline fill="none" stroke="#000000" stroke-width="0.5" stroke-dasharray="0,3,1,3,1,3,1,3,1,0" points="74.88,100.17 521.28,100.17"/>
<polyline fill="none" stroke="#000000" stroke-width="0.5" stroke-dasharray="0,3,1,3,1,3,1,3,1,0" points="74.88,96.7667 521.28,96.7667"/>
<polyline fill="none" stroke="#000000" stroke-width="0.5" stroke-dasharray="0,3,1,3,1,3,1,3,1,0" points="74.88,93.7651 521.28,93.7651"/>
<polyline fill="none" stroke="#000000" stroke-width="0.5" stroke-dasharray="0,3,1,3,1,3,1,3,1,0" points="74.88,73.4156 521.28,73.4156"/>
<polyline fill="none" stroke="#000000" stroke-width="0.5" stroke-dasharray="0,3,1,3,1,3,1,3,1,0" points="74.88,63.0825 521.28,63.0825"/>
<polyline fill="none" stroke="#000000" stroke-width="0.5" stroke-dasharray="0,3,1,3,1,3,1,3,1,0" points="74.88,55.7511 521.28,55.7511"/>
<polyline fill="none" stroke="#000000" stroke-width="0.5" stroke-dasharray="0,3,1,3,1,3,1,3,1,0" points="74.88,50.0645 521.28,50.0645"/>
<polyline fill="none" stroke="#000000" stroke-width="0.5" stroke-dasharray="0,3,1,3,1,3,1,3,1,0" points="74.88,45.4181 521.28,45.4181"/>
<polyline fill="none" stroke="#000000" stroke-width="0.5" stroke-dasharray="0,3,1,3,1,3,1,3,1,0" points="74.88,41.4897 521.28,41.4897"/>
<polyline fill="none" stroke="#000000" stroke-width="0.5" stroke-dasharray="0,3,1,3,1,3,1,3,1,0" points="74.88,38.0867 521.28,38.0867"/>
<polyline fill="none" stroke="#000000" stroke-width="0.5" stroke-dasharray="0,3,1,3,1,3,1,3,1,0" points="74.88,35.0851 521.28,35.0851"/>
<text fill="#000000" x="298.08" y="400.481" font-size="10" text-anchor="middle" baseline-shift="-10" font-family="Helvetica">E_{B} / N_{0} (dB)</text>
<text fill="#000000" x="39.8755" y="208.44" font-size="10" transform="rotate(-90, 39.8755, 208.44)" text-anchor="middle" baseline-shift="0" font-family="Helvetica">Perror</text>
<polyline fill="none" stroke="#0000ff" stroke-width="0.5" points="74.88,86.4773 106.766,89.9973 138.651,94.3257 170.537,99.657 202.423,106.231 234.309,114.344 266.194,124.359 298.08,136.723 329.966,151.991 361.851,170.85 393.737,194.163 425.623,223.017 457.509,258.794 489.394,303.243 521.28,358.578"/>
<polyline fill="none" stroke="#000000" stroke-width="0.5" points="77.88,82.3283 77.3071,84.0917 75.8071,85.1815 73.9529,85.1815 72.4529,84.0917 71.88,82.3283 72.4529,80.565 73.9529,79.4752 75.8071,79.4752 77.3071,80.565 77.88,82.3283"/>
<polyline fill="none" stroke="#000000" stroke-width="0.5" points="109.766,86.6371 109.193,88.4005 107.693,89.4903 105.839,89.4903 104.339,88.4005 103.766,86.6371 104.339,84.8738 105.839,83.784 107.693,83.784 109.193,84.8738 109.766,86.6371"/>
<polyline fill="none" stroke="#000000" stroke-width="0.5" points="141.651,91.6513 141.078,93.4147 139.578,94.5045 137.724,94.5045 136.224,93.4147 135.651,91.6513 136.224,89.888 137.724,88.7982 139.578,88.7982 141.078,89.888 141.651,91.6513"/>
<polyline fill="none" stroke="#000000" stroke-width="0.5" points="173.537,97.6771 172.964,99.4404 171.464,100.53 169.61,100.53 168.11,99.4404 167.537,97.6771 168.11,95.9137 169.61,94.8239 171.464,94.8239 172.964,95.9137 173.537,97.6771"/>
<polyline fill="none" stroke="#000000" stroke-width="0.5" points="205.423,104.773 204.85,106.536 203.35,107.626 201.496,107.626 199.996,106.536 199.423,104.773 199.996,103.01 201.496,101.92 203.35,101.92 204.85,103.01 205.423,104.773"/>
<polyline fill="none" stroke="#000000" stroke-width="0.5" points="237.309,113.232 236.736,114.995 235.236,116.085 233.382,116.085 231.882,114.995 231.309,113.232 231.882,111.468 233.382,110.379 235.236,110.379 236.736,111.468 237.309,113.232"/>
<polyline fill="none" stroke="#000000" stroke-width="0.5" points="269.194,123.696 268.621,125.459 267.121,126.549 265.267,126.549 263.767,125.459 263.194,123.696 263.767,121.933 265.267,120.843 267.121,120.843 268.621,121.933 269.194,123.696"/>
<polyline fill="none" stroke="#000000" stroke-width="0.5" points="301.08,136.443 300.507,138.207 299.007,139.296 297.153,139.296 295.653,138.207 295.08,136.443 295.653,134.68 297.153,133.59 299.007,133.59 300.507,134.68 301.08,136.443"/>
<polyline fill="none" stroke="#000000" stroke-width="0.5" points="332.966,151.642 332.393,153.405 330.893,154.495 329.039,154.495 327.539,153.405 326.966,151.642 327.539,149.879 329.039,148.789 330.893,148.789 332.393,149.879 332.966,151.642"/>
<polyline fill="none" stroke="#000000" stroke-width="0.5" points="364.851,170.491 364.279,172.254 362.779,173.344 360.924,173.344 359.424,172.254 358.851,170.491 359.424,168.728 360.924,167.638 362.779,167.638 364.279,168.728 364.851,170.491"/>
<polyline fill="none" stroke="#000000" stroke-width="0.5" points="396.737,194.115 396.164,195.878 394.664,196.968 392.81,196.968 391.31,195.878 390.737,194.115 391.31,192.352 392.81,191.262 394.664,191.262 396.164,192.352 396.737,194.115"/>
<polyline fill="none" stroke="#000000" stroke-width="0.5" points="428.623,222.35 428.05,224.113 426.55,225.203 424.696,225.203 423.196,224.113 422.623,222.35 423.196,220.586 424.696,219.496 426.55,219.496 428.05,220.586 428.623,222.35"/>
<polyline fill="none" stroke="#000000" stroke-width="0.5" points="460.509,257.432 459.936,259.195 458.436,260.285 456.582,260.285 455.082,259.195 454.509,257.432 455.082,255.669 456.582,254.579 458.436,254.579 459.936,255.669 460.509,257.432"/>
<polyline fill="none" stroke="#000000" stroke-width="0.5" points="492.394,302.237 491.821,304.001 490.321,305.091 488.467,305.091 486.967,304.001 486.394,302.237 486.967,300.474 488.467,299.384 490.321,299.384 491.821,300.474 492.394,302.237"/>
<polyline fill="none" stroke="#000000" stroke-width="0.5" points="524.28,359.004 523.707,360.767 522.207,361.857 520.353,361.857 518.853,360.767 518.28,359.004 518.853,357.241 520.353,356.151 522.207,356.151 523.707,357.241 524.28,359.004"/>
<polyline fill="none" stroke="#000000" stroke-width="0.5" stroke-dasharray="16,0" points="422.846,63.266 518.534,63.266"/>
<polyline fill="none" stroke="#000000" stroke-width="0.5" stroke-dasharray="16,0" points="422.846,35.1458 518.534,35.1458"/>
<polyline fill="none" stroke="#000000" stroke-width="0.5" stroke-dasharray="16,0" points="422.846,63.266 422.846,35.1458"/>
<polyline fill="none" stroke="#000000" stroke-width="0.5" stroke-dasharray="16,0" points="518.534,63.266 518.534,35.1458"/>
<text fill="#000000" x="448.931" y="42.1758" font-size="10" text-anchor="start" baseline-shift="-5" font-family="Helvetica">Teorico</text>
<text fill="#000000" x="448.931" y="56.236" font-size="10" text-anchor="start" baseline-shift="-5" font-family="Helvetica">Experimental</text>
<polyline fill="none" stroke="#0000ff" stroke-width="0.5" points="425.592,42.1758 446.185,42.1758"/>
<polyline fill="none" stroke="#000000" stroke-width="0.5" points="438.889,56.236 438.316,57.9993 436.816,59.0891 434.962,59.0891 433.462,57.9993 432.889,56.236 433.462,54.4726 434.962,53.3828 436.816,53.3828 438.316,54.4726 438.889,56.236"/>
<text fill="#000000" x="298.08" y="22.4" font-size="10" text-anchor="middle" baseline-shift="0" font-family="Helvetica">Perror QAM16</text>
</g>
</svg>
